# xmcd
#
# Track frame offsets: 
#        150
#        22339
#        44657
#        62909
#        75499
#        89533
#        107822
#        122710
#        142174
#        158789
#        172540
#        188004
#        207664
#
# Disc length: 3032 seconds
#
# Revision: 0
# Processed by: cddbd v1.5.1PL2 Copyright (c) Steve Scherf et al.
# Submitted via: ExactAudioCopy v0.95b3
#
DISCID=b90bd60d
DTITLE=Various Artist - House Diva
DYEAR=2001
DGENRE=Dance
TTITLE0=Anita Ward - Ring My Bell (Funkstar Deluxe Mix)
TTITLE1=Sophie - If You Want My Love (Pierre J's Remix)
TTITLE2=Goldie featuring M.S. Victor - Take Me Away
TTITLE3=Brenda K Starr - I Don't Know What To Do
TTITLE4=Adeva - 1999
TTITLE5=Billie Holliday - Don't Explain (Pleasure Device Mix)
TTITLE6=Loleatta Holloway - Like A Virgin (Sunshine State Mix)
TTITLE7=Yarborough and Peoples - Heartbeat
TTITLE8=Andrea True Connection - More, More, More (Astralasia Mix)
TTITLE9=Sister Sledge - We Are Family (Da' Funked Mix)
TTITLE10=Donna Summer - Back Off Boogaloo (Millenium Mix)
TTITLE11=Ike and Tina Turner - A Fool In Love (DJ Skooby Mix)
TTITLE12=Gloria Gaynor - I Will Survive (Millenium Version)
EXTD=
EXTT0=
EXTT1=
EXTT2=
EXTT3=
EXTT4=
EXTT5=
EXTT6=
EXTT7=
EXTT8=
EXTT9=
EXTT10=
EXTT11=
EXTT12=
PLAYORDER=
